<?xml version="1.0" standalone="no"?><!DOCTYPE svg PUBLIC "-//W3C//DTD SVG 1.1//EN" "http://www.w3.org/Graphics/SVG/1.1/DTD/svg11.dtd"><svg t="1661935757639" class="icon" viewBox="0 0 1024 1024" version="1.1" xmlns="http://www.w3.org/2000/svg" p-id="12059" data-spm-anchor-id="a313x.7781069.0.i12" xmlns:xlink="http://www.w3.org/1999/xlink" width="64" height="64"><path d="M759.466667 189.866667l140.8 130.133333c6.4 4.266667 8.533333 12.8 8.533333 19.2 0 8.533333-2.133333 14.933333-8.533333 19.2l-140.8 130.133333c-4.266667 4.266667-10.666667 6.4-14.933334 6.4-4.266667-2.133333-6.4-6.4-6.4-14.933333v-85.333333h-89.6l-341.333333 341.333333h-166.4c-8.533333 0-14.933333-2.133333-19.2-8.533333-6.4-6.4-8.533333-12.8-8.533333-19.2v-57.6c0-8.533333 2.133333-14.933333 8.533333-19.2 6.4-6.4 12.8-8.533333 19.2-8.533334h119.466667l341.333333-341.333333h136.533333v-85.333333c0-8.533333 2.133333-12.8 6.4-14.933334 4.266667 2.133333 10.666667 4.266667 14.933334 8.533334z m-347.733334 198.4l-81.066666 81.066666-70.4-70.4h-119.466667c-8.533333 0-14.933333-2.133333-19.2-8.533333-6.4-6.4-8.533333-12.8-8.533333-19.2v-57.6c0-8.533333 2.133333-14.933333 8.533333-19.2s12.8-8.533333 19.2-8.533333h166.4l104.533333 102.4z m347.733334 142.933333l140.8 130.133333c6.4 4.266667 8.533333 12.8 8.533333 19.2 0 8.533333-2.133333 14.933333-8.533333 19.2l-140.8 130.133334c-4.266667 4.266667-10.666667 6.4-14.933334 6.4-4.266667-2.133333-6.4-6.4-6.4-14.933334v-85.333333h-136.533333l-102.4-102.4 81.066667-81.066667 70.4 70.4h89.6v-85.333333c0-8.533333 2.133333-12.8 6.4-14.933333 2.133333 2.133333 8.533333 4.266667 12.8 8.533333z" p-id="12060" fill="#a8a8a8"></path></svg>